<?xml version="1.0" encoding="utf-8"?>
<!-- Generator: Adobe Illustrator 22.0.0, SVG Export Plug-In . SVG Version: 6.00 Build 0)  -->
<svg version="1.1"
	 id="svg2337" inkscape:export-filename="/home/martas/gvfs/sftp:host=fatty/data/share/Work/nebula-broadcast/logo-wide-black.png" inkscape:export-xdpi="96" inkscape:export-ydpi="96" inkscape:version="0.92.2 (5c3e80d, 2017-08-06)" sodipodi:docname="logo-wide.svg" xmlns:cc="http://creativecommons.org/ns#" xmlns:dc="http://purl.org/dc/elements/1.1/" xmlns:inkscape="http://www.inkscape.org/namespaces/inkscape" xmlns:rdf="http://www.w3.org/1999/02/22-rdf-syntax-ns#" xmlns:sodipodi="http://sodipodi.sourceforge.net/DTD/sodipodi-0.dtd" xmlns:svg="http://www.w3.org/2000/svg"
	 xmlns="http://www.w3.org/2000/svg" xmlns:xlink="http://www.w3.org/1999/xlink" x="0px" y="0px" viewBox="0 0 765.1 774"
	 style="enable-background:new 0 0 765.1 774;" xml:space="preserve">
<style type="text/css">
	.st0{fill:#F9F9F9;}
	.st1{fill:#F9F9F9;stroke:#000000;stroke-miterlimit:10;}
</style>
<sodipodi:namedview  bordercolor="#666666" borderlayer="true" borderopacity="1.0" id="base" inkscape:current-layer="g1453" inkscape:cx="1013.7728" inkscape:cy="328.22677" inkscape:document-units="px" inkscape:guide-bbox="true" inkscape:pageopacity="0.0" inkscape:pageshadow="2" inkscape:showpageshadow="false" inkscape:window-height="1005" inkscape:window-maximized="0" inkscape:window-width="1680" inkscape:window-x="0" inkscape:window-y="22" inkscape:zoom="0.49497475" pagecolor="#ffffff" showgrid="false" showguides="true" units="px">
	
		<sodipodi:guide  id="guide2882" inkscape:color="rgb(0,0,255)" inkscape:label="" inkscape:locked="false" orientation="1,0" position="0,0">
		</sodipodi:guide>
	
		<sodipodi:guide  id="guide2884" inkscape:color="rgb(0,0,255)" inkscape:label="" inkscape:locked="false" orientation="1,0" position="508,0">
		</sodipodi:guide>
	
		<sodipodi:guide  id="guide3089" inkscape:color="rgb(0,0,255)" inkscape:label="" inkscape:locked="false" orientation="1,0" position="25.4,0">
		</sodipodi:guide>
	
		<sodipodi:guide  id="guide3091" inkscape:color="rgb(0,0,255)" inkscape:label="" inkscape:locked="false" orientation="1,0" position="482.6,0">
		</sodipodi:guide>
</sodipodi:namedview>
<g id="layer1" transform="translate(0,-92.212648)" inkscape:groupmode="layer" inkscape:label="Layer 1">
	<g id="g2925" transform="translate(10.679519,16.462863)">
		<g id="g1453" transform="translate(0,-7.7945425)">
			<g id="g325" transform="matrix(3.5847325,0,0,3.5847325,-105.85911,-16.363857)">
				<g id="g75">
					<path id="path73" inkscape:connector-curvature="0" class="st0" d="M239.7,241.6H26.6V30.2h213.1V241.6z M30.3,237.8h205.6V34
						H30.3L30.3,237.8z"/>
				</g>
				<path id="path87" inkscape:connector-curvature="0" class="st1" d="M67.3,177.5"/>
				<path id="path89" inkscape:connector-curvature="0" class="st0" d="M202.6,151.4c-5.3-9.9-16.1-13.6-17.4-14.1
					c0,0,11.5-3.8,14.1-17.1c0,0,3.1-11.6-5.2-21.4c0,0-5.2-8.5-23.5-10.2c0,0-5.4-0.6-8.7-0.7s-19.1-0.1-19.1-0.1v67.6L93.1,88H84
					l58.8,79.6v9.3l-66.1-89h-6.9v102.4h7.8v-88.6l66.2,89.1h6.9V95.4c0,0,15.9-1.2,29.5,3.2c0,0,11.9,3.2,11.5,16.5
					c0,0,1.3,12.9-13.9,17c0,0-9.2,2.4-16.8,2v7.4c0,0,13.7-0.1,18.2,1.3c0,0,11.2,2.1,16.2,11.1c0,0,5.4,9.1-1.9,19.4
					c0,0-4.5,6.3-14.3,8.4c0,0-3.4,1.7-18.1,1.4v7.4c0,0,13.2,0.7,21.5-2c8.4-2.5,17.4-6.9,21.1-17.4
					C203.5,171.3,207.9,161.3,202.6,151.4L202.6,151.4z"/>
			</g>
		</g>
	</g>
</g>
</svg>
